<?xml version="1.0" encoding="UTF-8"?>
<svg version="1.1" xmlns="http://www.w3.org/2000/svg" width="678" height="678">
<path d="M0 0 C1.5732658 -0.00551503 1.5732658 -0.00551503 3.17831475 -0.01114148 C6.66291341 -0.0220793 10.14748216 -0.02600517 13.63209534 -0.02983093 C16.14310804 -0.03610306 18.65411982 -0.04275051 21.16513062 -0.04974365 C28.67572097 -0.0688882 36.18630604 -0.07955844 43.69691452 -0.08847144 C46.53343664 -0.09198752 49.36995767 -0.09613326 52.20647888 -0.1003111 C64.73810716 -0.11876581 77.2697355 -0.13451239 89.80137539 -0.14220905 C92.86018309 -0.14411848 95.91899079 -0.14603888 98.97779846 -0.147995 C100.11796629 -0.14872061 100.11796629 -0.14872061 101.28116781 -0.14946087 C113.57927025 -0.15775155 125.87727514 -0.1830784 138.17533504 -0.21557567 C150.84096076 -0.24876781 163.50653707 -0.26666859 176.17220646 -0.26985329 C183.26759062 -0.27200679 190.36283235 -0.28058402 197.45817375 -0.30631447 C204.14040073 -0.33049327 210.82232894 -0.33377164 217.50460625 -0.32355309 C219.94247286 -0.32306106 222.38035264 -0.32928164 224.81818008 -0.34310913 C262.01121601 -0.5420868 293.83889319 10.17216117 320.7046051 36.39717102 C329.5481327 45.33538878 336.74776691 55.37312556 342.7671051 66.39717102 C343.11491028 67.02929504 343.46271545 67.66141907 343.82106018 68.31269836 C344.7514801 70.10029602 344.7514801 70.10029602 346.0171051 73.14717102 C344.87550463 76.57197244 344.3981489 76.81039266 341.4311676 78.57295227 C340.29651062 79.26227844 340.29651062 79.26227844 339.13893127 79.9655304 C338.31497864 80.4585968 337.491026 80.95166321 336.6421051 81.45967102 C316.33310875 93.96225839 298.42990989 108.94624642 281.0171051 125.14717102 C282.97812222 128.57574669 285.15488013 131.74731965 287.53053284 134.90132141 C299.94158272 151.38485136 310.5626464 168.81933025 320.0171051 187.14717102 C320.42412659 187.93382141 320.83114807 188.7204718 321.25050354 189.53096008 C336.63909115 219.65028286 346.42078339 252.8706306 352.0171051 286.14717102 C352.19040376 287.1093819 352.36370241 288.07159279 352.54225254 289.06296158 C354.59292323 302.00482402 354.32116144 314.99619234 354.32350159 328.06806946 C354.33006439 330.77834203 354.33951589 333.48860311 354.34872437 336.1988678 C354.37141929 343.52546749 354.37947741 350.85203794 354.38455081 358.17866802 C354.38782454 362.76481487 354.39435676 367.35095348 354.4015522 371.93709564 C354.42109411 384.6696635 354.43751366 397.40222377 354.44042873 410.13480759 C354.4406163 410.94699702 354.44080387 411.75918646 354.44099713 412.59598769 C354.44136334 414.24198675 354.44172704 415.88798581 354.44208824 417.53398487 C354.44227105 418.35089685 354.44245386 419.16780882 354.44264221 420.00947571 C354.44291304 421.23636244 354.44291304 421.23636244 354.44318933 422.48803475 C354.44673003 435.73716414 354.47375674 448.98613093 354.5111401 462.23520395 C354.54933615 475.88293898 354.56858701 489.53059351 354.56888825 503.17838311 C354.5694701 510.82310778 354.57778614 518.46763811 354.60688591 526.11231232 C354.63155114 532.62113349 354.63858136 539.12968935 354.62363838 545.63854477 C354.61653166 548.95060039 354.61984399 552.26171307 354.64004898 555.57377625 C354.81665545 586.4252836 346.87228901 615.2550424 325.01319885 638.06123352 C323.31203981 639.83896137 321.83027869 641.6415496 320.3296051 643.58467102 C311.53853083 653.84493853 298.68423001 661.58797031 287.0171051 668.14717102 C286.3571051 668.14717102 285.6971051 668.14717102 285.0171051 668.14717102 C283.67945862 666.44160461 283.67945862 666.44160461 282.14601135 664.04560852 C281.57729309 663.16969055 281.00857483 662.29377258 280.42262268 661.39131165 C279.81442688 660.44449524 279.20623108 659.49767883 278.5796051 658.52217102 C272.79478423 649.68431207 266.75761369 641.27348704 260.0171051 633.14717102 C259.54643616 632.5749884 259.07576721 632.00280579 258.59083557 631.4132843 C253.81002946 625.61364421 248.99846448 619.91210293 243.56788635 614.70185852 C241.39116492 612.51965417 239.48077895 610.14259234 237.5717926 607.72529602 C235.61691264 605.74094551 233.41492629 604.54561581 231.0171051 603.14717102 C230.30022522 603.76608215 229.58334534 604.38499329 228.84474182 605.0226593 C221.58551506 611.1937642 214.10488301 616.77371502 206.1421051 622.02217102 C205.56061707 622.40769135 204.97912903 622.79321167 204.38002014 623.19041443 C193.27932193 630.53182561 181.89450081 637.1320739 170.0171051 643.14717102 C169.1110553 643.61171692 168.20500549 644.07626282 167.27149963 644.55488586 C136.58411577 660.18137359 103.92090578 670.35801544 70.0171051 676.14717102 C68.57133307 676.40854229 68.57133307 676.40854229 67.09635353 676.67519379 C54.10823218 678.73150631 41.06268774 678.45899772 27.9443512 678.46943665 C25.21761855 678.47764855 22.49089884 678.48872051 19.76417542 678.49952698 C12.39199432 678.52650125 5.01983524 678.53871155 -2.35238695 678.54754829 C-6.96803137 678.55310358 -11.58366762 678.56158331 -16.19930649 678.57055664 C-29.0159356 678.59491235 -41.83255824 678.61551967 -54.64920998 678.62230682 C-55.46683151 678.62274596 -56.28445304 678.62318509 -57.12685098 678.62363753 C-57.94625027 678.62407408 -58.76564956 678.62451064 -59.60987914 678.62496042 C-61.26986226 678.62584731 -62.92984538 678.62674043 -64.58982849 678.62763977 C-65.41320959 678.62808263 -66.23659068 678.62852549 -67.08492272 678.62898177 C-80.41679398 678.6368725 -93.74844629 678.67177772 -107.08023305 678.71835881 C-120.81611867 678.76595898 -134.55189476 678.7907182 -148.28786409 678.79304266 C-155.98075925 678.79486603 -163.67336858 678.80611274 -171.36618423 678.84268188 C-177.91742952 678.87371858 -184.4683005 678.88358842 -191.01960547 678.86720568 C-194.35230044 678.85947487 -197.68364136 678.86420541 -201.01633835 678.88932037 C-228.97059466 679.08745997 -253.72280289 672.57337412 -275.9828949 655.14717102 C-276.55636658 654.69857727 -277.12983826 654.24998352 -277.72068787 653.78779602 C-286.58505273 646.7446772 -293.98953865 639.030937 -300.9828949 630.14717102 C-301.64676208 629.32474915 -302.31062927 628.50232727 -302.99461365 627.65498352 C-306.9828949 622.5789892 -306.9828949 622.5789892 -306.9828949 619.14717102 C-304.69972872 617.52775167 -302.45776704 616.11282241 -300.0453949 614.70967102 C-286.75571329 606.68151486 -274.28926113 597.81184594 -262.61717224 587.57099915 C-260.86351539 586.04316425 -259.09162501 584.53876015 -257.31492615 583.03779602 C-251.29994096 577.94849618 -245.43008986 572.85375622 -239.9828949 567.14717102 C-241.32149428 563.20727284 -242.97275439 560.80964191 -245.8578949 557.83467102 C-298.5175635 500.71659597 -324.30955762 418.81010414 -324.27342224 342.33857727 C-324.27941883 339.78387763 -324.28622694 337.22917978 -324.29377747 334.67448425 C-324.30950866 328.49861907 -324.31588042 322.32280997 -324.31700222 316.14692664 C-324.31795881 311.1208084 -324.3220992 306.09470257 -324.32840347 301.06858826 C-324.34597205 286.76767812 -324.35524844 272.46679775 -324.35374252 258.16587675 C-324.35366261 257.39819018 -324.3535827 256.63050362 -324.35350037 255.83955383 C-324.35337772 254.68659315 -324.35337772 254.68659315 -324.3532526 253.51034033 C-324.35243942 241.04966342 -324.37159667 228.58910728 -324.3997771 216.12846529 C-324.42859281 203.28407902 -324.44231285 190.43975152 -324.44058955 177.59533215 C-324.43992897 170.40399237 -324.44527517 163.2127795 -324.46694565 156.02146912 C-324.48719984 149.25788766 -324.4863958 142.49461715 -324.47191238 135.73100662 C-324.46983392 133.26166007 -324.47446709 130.79229643 -324.4866333 128.32297897 C-324.65286218 92.22231293 -313.90643499 62.60308067 -288.9828949 36.14717102 C-288.38348083 35.48330383 -287.78406677 34.81943665 -287.16648865 34.13545227 C-280.91507021 27.47897433 -273.44228286 22.34956131 -265.9828949 17.14717102 C-265.11148865 16.53744446 -264.2400824 15.9277179 -263.3422699 15.29951477 C-261.2328949 13.89717102 -261.2328949 13.89717102 -257.9828949 12.14717102 C-253.61471646 13.6032305 -252.53811536 17.00030414 -250.4203949 20.83467102 C-246.09623749 28.42168149 -241.39268001 35.53476937 -236.18113708 42.5358429 C-235.02425405 44.09155358 -233.88218654 45.658248 -232.7407074 47.22529602 C-224.49236636 58.43834327 -215.36925846 68.88011161 -205.9828949 79.14717102 C-201.82528234 77.74890418 -199.1845396 75.80076955 -195.9203949 72.89717102 C-143.93069339 28.31096166 -68.66693092 -0.01321213 0 0 Z M-205.9828949 116.14717102 C-207.3028949 117.46717102 -208.6228949 118.78717102 -209.9828949 120.14717102 C-208.65989713 124.02166448 -207.08836427 126.36302741 -204.2328949 129.27217102 C-148.01612531 190.25612267 -122.32178392 279.68628714 -124.9828949 361.14717102 C-128.0361305 432.7391851 -153.2587681 498.8076806 -195.8813324 555.93232727 C-198.36245625 559.27115126 -200.71704661 562.65910408 -202.9828949 566.14717102 C-202.3228949 566.80717102 -201.6628949 567.46717102 -200.9828949 568.14717102 C-197.77084985 567.79563466 -195.87441924 566.50907298 -193.4282074 564.47920227 C-192.40001892 563.64461487 -192.40001892 563.64461487 -191.35105896 562.79316711 C-190.61081482 562.1881134 -189.87057068 561.58305969 -189.1078949 560.95967102 C-121.66089893 507.31430327 -31.07955128 484.21617366 54.0796051 493.33467102 C58.40607658 493.85930429 62.7111797 494.47539423 67.0171051 495.14717102 C68.13246643 495.31877747 69.24782776 495.49038391 70.39698792 495.66719055 C107.39011484 501.54219893 142.9143123 513.66273022 176.0171051 531.14717102 C176.7080426 531.50859192 177.3989801 531.87001282 178.1108551 532.24238586 C194.83251652 541.04624972 210.74575197 551.34085746 225.4233551 563.25654602 C227.90889117 565.06829219 230.11835053 566.15991403 233.0171051 567.14717102 C234.6671051 565.16717102 236.3171051 563.18717102 238.0171051 561.14717102 C237.66631897 560.71710754 237.31553284 560.28704407 236.95411682 559.84394836 C180.8337092 490.56151446 155.39991873 399.90670406 164.60670471 311.47236633 C169.45041452 269.14596069 181.36214898 228.80822123 201.04640198 191.0148468 C202.01190455 189.15717712 202.96028775 187.29144698 203.9077301 185.42451477 C213.67882265 166.39975515 226.0687733 148.66683954 239.90333557 132.38716125 C240.43845764 131.74722229 240.97357971 131.10728333 241.5249176 130.44795227 C242.00589905 129.88245667 242.48688049 129.31696106 242.98243713 128.73432922 C244.29015841 127.04408423 244.29015841 127.04408423 244.0171051 124.14717102 C242.0796045 121.95939636 242.0796045 121.95939636 240.0171051 120.14717102 C236.37910093 121.17035969 234.08045021 122.85740869 231.34132385 125.35420227 C183.22476277 168.12630596 117.02328017 190.85744558 54.0171051 198.14717102 C53.12217346 198.25174622 52.22724182 198.35632141 51.30519104 198.46406555 C40.91271515 199.50182797 30.45055776 199.39098236 20.0171051 199.39717102 C18.48310059 199.39818314 18.48310059 199.39818314 16.91810608 199.3992157 C0.43880988 199.38198333 -15.67985189 198.75902146 -31.9828949 196.14717102 C-33.05765076 195.97556458 -34.13240662 195.80395813 -35.23973083 195.62715149 C-94.87221517 185.7472655 -153.54150916 160.74972659 -199.06443787 120.43403625 C-201.39627624 118.38297667 -202.99296919 117.14381292 -205.9828949 116.14717102 Z " fill="#271704" transform="translate(323.98289489746094,-0.1471710205078125)"/>
<path d="M0 0 C1.41179418 3.96968074 2.40387471 7.75831853 3.03515625 11.921875 C3.20466797 13.03046875 3.37417969 14.1390625 3.54882812 15.28125 C3.71833984 16.4259375 3.88785156 17.570625 4.0625 18.75 C4.23587891 19.87921875 4.40925781 21.0084375 4.58789062 22.171875 C6.09428534 32.1452469 7.15663559 41.91198374 7.1328125 52.00390625 C7.13376923 52.9260643 7.13472595 53.84822235 7.13571167 54.79832458 C7.13638756 56.73867868 7.13457483 58.67903511 7.13037109 60.61938477 C7.12505782 63.53081582 7.13031406 66.44208955 7.13671875 69.35351562 C7.14880252 98.10630419 7.14880252 98.10630419 4.8125 111.8125 C4.68721924 112.57054932 4.56193848 113.32859863 4.43286133 114.10961914 C0.45300913 137.29608719 -4.45170277 160.41603398 -14 182 C-14.58320222 183.41381322 -15.16230013 184.82932334 -15.73828125 186.24609375 C-27.54013811 215.15353714 -42.94497942 241.99296066 -63 266 C-87.6990301 256.14279071 -108.13786971 204.49723808 -118.3125 182 C-134.13804078 143.11996772 -142.30338607 102.76113937 -142.25 60.8125 C-142.24931519 60.05388672 -142.24863037 59.29527344 -142.2479248 58.51367188 C-142.20305993 43.49128086 -141.81147121 28.42686188 -139.5 13.5625 C-139.36980469 12.66724609 -139.23960937 11.77199219 -139.10546875 10.84960938 C-138.59581954 7.4287821 -138.09637691 4.28913072 -137 1 C-133.30957475 1.61617513 -130.23462652 2.69605135 -126.8125 4.1875 C-111.48195415 10.18336913 -94.46690494 13.88541915 -78 14 C-76.19006142 14.0599204 -74.38016883 14.1212384 -72.5703125 14.18359375 C-49.4431163 14.79086001 -27.29091607 10.73629855 -6.09375 1.28515625 C-3 0 -3 0 0 0 Z " fill="#CF9B46" transform="translate(167,280)"/>
<path d="M0 0 C0.99873138 -0.00167175 1.99746277 -0.00334351 3.02645874 -0.00506592 C21.35672935 -0.00690444 39.6331484 0.44929558 57.4375 5.25 C57.10943343 9.29615437 55.96713412 12.3559166 54.1875 15.9375 C38.87321583 48.69059331 39.8270106 91.50770493 51.45068359 125.18554688 C53.44794191 130.64608861 55.56610437 136.05326335 57.7824707 141.4284668 C58.4375 143.25 58.4375 143.25 58.4375 145.25 C-11.1030195 163.05047428 -92.44343458 143.56698569 -153.35205078 108.65087891 C-158.88153476 105.36738936 -164.24662094 101.86691545 -169.5625 98.25 C-170.66126465 97.51185059 -170.66126465 97.51185059 -171.78222656 96.75878906 C-181.96440839 89.8917362 -191.40788385 82.43257292 -200.5625 74.25 C-196.92393552 69.54903024 -193.10033729 66.06306917 -188.3125 62.5625 C-187.26521729 61.7893042 -187.26521729 61.7893042 -186.19677734 61.00048828 C-140.73508853 27.80929767 -88.29640264 8.12137615 -32.5625 1.25 C-31.79365479 1.15138672 -31.02480957 1.05277344 -30.23266602 0.95117188 C-20.20193435 -0.15440584 -10.07828173 0.00887073 0 0 Z " fill="#1A5355" transform="translate(338.5625,24.75)"/>
<path d="M0 0 C3.2829483 1.0943161 3.73363043 1.61357927 5.6796875 4.296875 C6.18959229 4.99707764 6.69949707 5.69728027 7.22485352 6.41870117 C7.76940186 7.18802979 8.3139502 7.9573584 8.875 8.75 C9.73339478 9.95523315 9.73339478 9.95523315 10.60913086 11.18481445 C27.46894748 35.15005359 40.8277445 60.53061806 51 88 C51.29600098 88.79148437 51.59200195 89.58296875 51.89697266 90.3984375 C64.72935742 125.17505107 69.1746542 160.96980519 69.1875 197.8125 C69.18899551 198.94507233 69.18899551 198.94507233 69.19052124 200.1005249 C69.18865514 212.54602656 68.68112563 224.90423364 67 237.25 C66.835 238.49265625 66.67 239.7353125 66.5 241.015625 C66 244 66 244 65 246 C61.70441468 245.39842778 58.63330217 244.60443282 55.48046875 243.4765625 C17.4997712 230.1728742 -23.4351277 229.8706776 -61 245 C-62.1034375 245.58652344 -63.206875 246.17304688 -64.34375 246.77734375 C-67.32647847 248.15027612 -68.00680666 247.94075206 -71 247 C-72.84862875 233.44163455 -73.32713908 220.11173426 -73.25 206.4375 C-73.24623352 205.42332001 -73.24246704 204.40914001 -73.23858643 203.36422729 C-73.06409803 163.25281898 -67.49441894 124.54837034 -51.94775391 87.27783203 C-50.94074864 84.85759527 -49.96115707 82.42710235 -48.98046875 79.99609375 C-36.99924721 50.73336688 -19.80300821 24.54457355 0 0 Z " fill="#CE9B46" transform="translate(585,145)"/>
<path d="M0 0 C0.75811981 -0.00067474 1.51623962 -0.00134949 2.29733276 -0.00204468 C40.88461245 0.05186717 83.04565062 5.9696936 118.22265625 22.73828125 C120.96305414 24.00232652 123.71241483 25.19187141 126.49609375 26.35546875 C143.57652379 33.49910386 143.57652379 33.49910386 150.33203125 37.86328125 C152.76403832 39.41888938 155.26407513 40.76899076 157.8125 42.125 C167.69576221 47.49453771 177.0261698 53.48922058 186.1875 60 C187.37388062 60.83253296 187.37388062 60.83253296 188.58422852 61.68188477 C189.32342529 62.21483154 190.06262207 62.74777832 190.82421875 63.296875 C191.8155481 64.00602051 191.8155481 64.00602051 192.8269043 64.72949219 C194.6811408 66.41462059 195.52794514 67.9589699 196.5 70.25 C180.22412971 82.60082118 163.58115353 94.05481023 145.3359375 103.31445312 C143.4553754 104.27273956 141.58702659 105.25238126 139.71875 106.234375 C113.73528492 119.73831465 85.64439367 128.51841326 56.9375 133.9375 C55.87474854 134.13996338 54.81199707 134.34242676 53.71704102 134.55102539 C37.03019958 137.58534151 20.67582333 138.59969731 3.72583008 138.56567383 C0.4659634 138.56252747 -2.7929798 138.58602443 -6.05273438 138.61132812 C-21.05753367 138.65406961 -35.6516505 137.38212314 -50.5 135.25 C-51.88617309 130.83568428 -50.62311831 127.51956919 -49.25 123.25 C-48.77969709 121.71531878 -48.31095256 120.18015915 -47.84375 118.64453125 C-47.49763672 117.51845459 -47.49763672 117.51845459 -47.14453125 116.36962891 C-37.18893051 83.6292783 -40.34813877 40.66922828 -56.62084961 10.14770508 C-57.5 8.25 -57.5 8.25 -57.5 5.25 C-55.97632813 5.06824219 -55.97632813 5.06824219 -54.421875 4.8828125 C-48.02640864 4.10786459 -41.65670349 3.32008935 -35.3125 2.1875 C-23.63493388 0.18401653 -11.8197064 0.00958666 0 0 Z " fill="#1A5355" transform="translate(339.5,515.75)"/>
<path d="M0 0 C6.58485752 0.58738166 12.47818643 2.19758332 18.75 4.25 C19.72501465 4.56501465 20.7000293 4.8800293 21.70458984 5.20458984 C28.63058285 7.47398725 35.33519851 10.0500059 42 13 C42.89589844 13.35191406 43.79179687 13.70382813 44.71484375 14.06640625 C54.53669104 17.93316918 63.74011547 22.96575827 73 28 C74.10093994 28.59699707 74.10093994 28.59699707 75.22412109 29.20605469 C86.9685467 35.60427785 97.99558122 42.75596824 108.8125 50.625 C109.42295166 51.06827637 110.03340332 51.51155273 110.66235352 51.96826172 C114.41432263 54.72953949 117.9830006 57.63742069 121.48339844 60.71166992 C123.10388842 62.13111166 123.10388842 62.13111166 125.4375 63.6875 C125.953125 64.120625 126.46875 64.55375 127 65 C127 68 127 68 125.62988281 69.40698242 C124.99405273 69.88498291 124.35822266 70.3629834 123.703125 70.85546875 C122.99792725 71.39131592 122.29272949 71.92716309 121.56616211 72.47924805 C120.80182861 73.04297119 120.03749512 73.60669434 119.25 74.1875 C118.47084229 74.77120361 117.69168457 75.35490723 116.88891602 75.95629883 C110.73575924 80.53328376 104.46802524 84.878707 98 89 C96.83832404 89.76138681 95.67687756 90.52312383 94.515625 91.28515625 C79.67854253 100.90571506 63.94431064 109.54102038 47.3515625 115.71875 C44.75504603 116.71135769 42.27264467 117.77331297 39.75 118.9296875 C34.73521958 121.1836403 29.59883454 122.92386656 24.375 124.625 C23.47265625 124.9240625 22.5703125 125.223125 21.640625 125.53125 C7.16356164 130.30066154 7.16356164 130.30066154 1 130 C-2.61693796 123.16635902 -5.49638669 116.30893564 -8 109 C-8.51046875 107.63101563 -8.51046875 107.63101563 -9.03125 106.234375 C-21.0259716 72.97628329 -16.37538048 35.67627698 -2 4 C-1.34232692 2.66220766 -0.67904039 1.32707437 0 0 Z " fill="#1A5355" transform="translate(417,35)"/>
<path d="M0 0 C0.27850039 4.94266417 -0.70928208 9.01862849 -2.2734375 13.65234375 C-2.51249313 14.38070435 -2.75154877 15.10906494 -2.99784851 15.85949707 C-3.77884189 18.22280896 -4.57522284 20.5804832 -5.375 22.9375 C-5.64665985 23.74478546 -5.9183197 24.55207092 -6.19821167 25.38381958 C-17.81504955 59.80934257 -33.93284953 91.48773722 -56.47949219 120.05224609 C-59.0377897 123.32939727 -61.51914526 126.66403979 -64 130 C-68.17829545 128.12905581 -70.26922977 125.41115043 -72.875 121.75 C-73.34405762 121.0988623 -73.81311523 120.44772461 -74.29638672 119.77685547 C-93.63589131 92.54547363 -107.91301722 63.84806012 -118.5 32.1875 C-119.11379517 30.35699097 -119.11379517 30.35699097 -119.73999023 28.48950195 C-126.71241947 7.13725842 -126.71241947 7.13725842 -125 2 C-122.36400987 0.55338314 -119.81407922 -0.68812224 -117.0625 -1.875 C-115.85327881 -2.4011792 -115.85327881 -2.4011792 -114.61962891 -2.93798828 C-78.99693954 -17.98544398 -34.65947424 -18.036261 0 0 Z " fill="#CD9A46" transform="translate(645,412)"/>
<path d="M0 0 C2.95729123 1.30727154 4.77963848 2.59063124 6.8125 5.09765625 C7.32425781 5.72494629 7.83601563 6.35223633 8.36328125 6.99853516 C8.90339844 7.67964355 9.44351563 8.36075195 10 9.0625 C10.57105469 9.77712402 11.14210938 10.49174805 11.73046875 11.22802734 C26.80770139 30.28674774 39.82703458 50.90597009 50 73 C50.59723877 74.29309082 50.59723877 74.29309082 51.20654297 75.61230469 C55.86744693 85.79534742 60.25068019 96.02046792 63.6875 106.6875 C64.07156006 107.86276245 64.07156006 107.86276245 64.46337891 109.06176758 C66.40504297 115.40561634 66.40504297 115.40561634 65 119 C62.21875 120.52734375 62.21875 120.52734375 58.5 121.9375 C57.83291016 122.19055908 57.16582031 122.44361816 56.47851562 122.7043457 C48.77375555 125.56143814 40.93928348 127.89588866 33 130 C31.84628906 130.32226562 30.69257812 130.64453125 29.50390625 130.9765625 C1.08822448 137.8788961 -31.93510499 132.73030421 -58 120 C-58.33 119.67 -58.66 119.34 -59 119 C-58.58942142 111.86889828 -56.86345002 105.61120282 -54.5625 98.875 C-54.20833008 97.83093994 -53.85416016 96.78687988 -53.48925781 95.71118164 C-44.58380556 70.0355965 -32.46756926 45.36035453 -17 23 C-16.55881836 22.3620752 -16.11763672 21.72415039 -15.66308594 21.06689453 C-10.65957212 13.87825529 -5.46795174 6.84399257 0 0 Z " fill="#CD9A46" transform="translate(95,141)"/>
<path d="M0 0 C0.95770991 2.1548473 1.91392048 4.3102034 2.86328125 6.46875 C3.54238859 7.98098903 4.24146771 9.48485947 4.98046875 10.96875 C19.05274146 39.91742529 19.211234 79.0734028 8.97924805 109.17529297 C7.79802434 112.51870535 6.58661558 115.82676883 5 119 C-12.22495773 115.36537589 -28.88553287 110.11632173 -45 103 C-46.15628906 102.52433594 -47.31257813 102.04867187 -48.50390625 101.55859375 C-64.3679595 94.97166928 -79.80205198 86.67017527 -94 77 C-94.92353271 76.37544922 -94.92353271 76.37544922 -95.86572266 75.73828125 C-103.37014144 70.65825754 -110.82054893 65.5341602 -118 60 C-116.64707447 56.84739243 -115.31015692 55.18015467 -112.52734375 53.19140625 C-111.81304199 52.67852051 -111.09874023 52.16563477 -110.36279297 51.63720703 C-106.12120763 48.69816267 -101.85858237 45.79639259 -97.5625 42.9375 C-96.67240234 42.33873047 -95.78230469 41.73996094 -94.86523438 41.12304688 C-89.98787096 37.87028369 -85.06823576 34.83780808 -79.91430664 32.04370117 C-77.70250476 30.8378023 -75.57047247 29.5271848 -73.4375 28.1875 C-56.39516352 17.93053823 -38.02879603 10.90270158 -19.25 4.5625 C-18.24873077 4.22125092 -18.24873077 4.22125092 -17.22723389 3.87310791 C-15.30540743 3.2206721 -13.3793215 2.58082508 -11.453125 1.94140625 C-10.33067383 1.56701416 -9.20822266 1.19262207 -8.05175781 0.80688477 C-5.20189658 0.05338145 -2.92669683 -0.16937218 0 0 Z " fill="#1A5354" transform="translate(262,527)"/>
<path d="M0 0 C12.06609596 -0.02323432 24.13218654 -0.04097144 36.19830036 -0.05181217 C41.80188605 -0.05701681 47.40545636 -0.06407026 53.0090332 -0.07543945 C58.42310422 -0.08635463 63.83716051 -0.09229504 69.25124168 -0.09487724 C71.31034769 -0.096716 73.36945294 -0.10030647 75.42855263 -0.10573006 C106.1542021 -0.18339567 133.50962317 5.79056732 156.23535156 27.85473633 C158.55786635 30.18552013 160.80350664 32.548524 163 35 C163.62261719 35.69222656 164.24523437 36.38445313 164.88671875 37.09765625 C166 39 166 39 165.8046875 40.92944336 C164.77209982 43.58641427 163.56635385 44.408095 161.23828125 46.03125 C160.45590088 46.5883667 159.67352051 47.1454834 158.86743164 47.71948242 C158.0243042 48.30705322 157.18117676 48.89462402 156.3125 49.5 C150.2152224 53.86873565 144.23400619 58.27441653 138.5625 63.1875 C137.72996704 63.90824707 137.72996704 63.90824707 136.88061523 64.64355469 C134.07175183 67.10541396 131.32447381 69.62245556 128.61328125 72.19140625 C128.06792725 72.70485596 127.52257324 73.21830566 126.96069336 73.74731445 C125.47102579 75.15900096 123.99666799 76.58679324 122.5234375 78.015625 C120 80 120 80 116 80 C114.25170898 78.67407227 114.25170898 78.67407227 112.49609375 76.81640625 C111.51721191 75.80247803 111.51721191 75.80247803 110.51855469 74.76806641 C109.83180664 74.04022949 109.14505859 73.31239258 108.4375 72.5625 C103.05227092 67.01316123 97.69838225 61.83261866 91.61328125 57.0546875 C88.82068253 54.85901197 86.1356131 52.56055923 83.4375 50.25 C58.53431345 29.54542019 29.8985635 13.32393619 0 1 C0 0.67 0 0.34 0 0 Z " fill="#CE9A46" transform="translate(469,25)"/>
<path d="M0 0 C0.33 0 0.66 0 1 0 C1.06996864 12.18866458 1.12304671 24.37728021 1.15543652 36.56610584 C1.1709936 42.22781863 1.1920466 47.88939251 1.22631836 53.55102539 C1.25927115 59.02998376 1.27692755 64.50880979 1.28463173 69.98785973 C1.29011155 72.06270107 1.30080892 74.13753641 1.31719017 76.21232033 C1.55415018 107.51204825 -4.60934756 133.05551517 -27 156 C-28.12535156 157.18335938 -28.12535156 157.18335938 -29.2734375 158.390625 C-33.25696656 162.5035828 -33.25696656 162.5035828 -35 164 C-35.66 164 -36.32 164 -37 164 C-38.2530313 162.44648157 -39.42642947 160.82849077 -40.5625 159.1875 C-44.19138808 154.05265653 -48.05903962 149.21064826 -52.1171875 144.41015625 C-53.75329768 142.31579945 -54.9330581 140.42027346 -56 138 C-56.66 138 -57.32 138 -58 138 C-59.41015625 136.6015625 -59.41015625 136.6015625 -61.0625 134.625 C-63.89609452 131.29345163 -66.76314892 128.00249608 -69.6875 124.75 C-70.41324219 123.94046875 -71.13898437 123.1309375 -71.88671875 122.296875 C-73.87209089 120.13902136 -75.91040428 118.05657728 -78 116 C-74.57723878 111.85665747 -71.03341252 108.00591456 -67.1875 104.25 C-62.88453342 99.99205698 -59.02315069 95.53754748 -55.25390625 90.8046875 C-53.79581837 88.99029045 -52.30517786 87.20138193 -50.77734375 85.4453125 C-29.01914068 60.38160612 -12.6174362 30.58772412 0 0 Z " fill="#1A5355" transform="translate(653,469)"/>
<path d="M0 0 C4.2370036 3.83978451 7.38111161 8.20026489 10.703125 12.83984375 C17.22916652 21.81870019 24.14703361 30.37260014 31.6953125 38.51171875 C34.8727439 41.94226756 37.94052867 45.46438578 41 49 C39.58261511 52.25207092 37.87473588 54.31361067 35.3125 56.75 C31.30883616 60.66005299 27.608854 64.72513432 24 69 C23.35804687 69.7528125 22.71609375 70.505625 22.0546875 71.28125 C-0.81499552 98.62360165 -19.41074894 129.05636107 -33 162 C-33.33 162 -33.66 162 -34 162 C-34.09321193 149.27255561 -34.16402261 136.54519415 -34.20724869 123.81747627 C-34.22800856 117.90570023 -34.25611126 111.99415995 -34.30175781 106.08251953 C-34.34563301 100.36365357 -34.369224 94.64501251 -34.37950897 88.92599106 C-34.38682628 86.75820253 -34.40111202 84.59042449 -34.42292023 82.42273331 C-34.72787146 50.81692497 -26.20945164 26.89918616 -4 4 C-2.67113341 2.66221484 -1.33957835 1.32705893 0 0 Z " fill="#1A5355" transform="translate(59,48)"/>
<path d="M0 0 C4.62339722 0.52491461 7.20244402 3.76410692 10.375 6.875 C37.91086932 33.09946589 71.99538891 53.49313855 107 68 C107 68.33 107 68.66 107 69 C94.25528474 69.09316783 81.51065209 69.16400068 68.7656641 69.20724869 C62.84601268 69.22801799 56.92659629 69.2561385 51.00708008 69.30175781 C45.28173489 69.34559863 39.55661407 69.36921698 33.83111382 69.37950897 C31.65970776 69.38683231 29.48831232 69.40113042 27.31700325 69.42292023 C-1.64385534 69.70167904 -25.60227987 62.31702719 -47 42 C-45.73985933 38.21957799 -44.3081005 37.55665294 -41.0625 35.3125 C-27.1309156 25.44578663 -13.85734793 14.47525603 -2.3046875 1.88671875 C-1.54414062 1.26410156 -0.78359375 0.64148438 0 0 Z " fill="#CE9B46" transform="translate(102,585)"/>
<path d="M0 0 C5.81624631 3.46933991 9.30152071 8.91131903 11.2265625 15.328125 C12.11641705 22.65569272 11.29852885 28.15677115 7.2265625 34.328125 C6.6284375 35.235625 6.0303125 36.143125 5.4140625 37.078125 C0.38427161 42.2516242 -5.45264113 44.44332255 -12.5859375 44.578125 C-19.7050789 44.47373876 -25.00034929 41.87533086 -30.1953125 37.11328125 C-35.146464 31.5125975 -36.41298073 25.29265614 -36.0859375 17.96484375 C-35.26386509 11.02860782 -32.81925063 6.52305448 -27.6484375 1.8046875 C-19.4280107 -4.6688986 -9.18292257 -4.13960319 0 0 Z " fill="#241401" transform="translate(113.7734375,208.671875)"/>
<path d="M0 0 C5.47911711 4.75126392 8.53059459 9.45589486 9.28125 16.72265625 C9.6520232 24.05469618 8.55622902 29.17615871 4 35 C-0.05438335 39.33699452 -4.80985857 42.67520178 -10.80078125 43.28515625 C-19.4782208 43.5337006 -25.92754581 41.76862949 -32.421875 35.859375 C-36.79520958 30.70663426 -38.74663479 23.99511799 -38.37890625 17.29296875 C-37.21499123 10.24948299 -34.69405353 4.52473595 -28.9140625 0.18359375 C-19.50643078 -5.63377852 -9.57322023 -5.65546674 0 0 Z " fill="#241400" transform="translate(599,421)"/>
<path d="M0 0 C4.83970939 4.08686571 8.45525756 8.42891068 9.421875 14.765625 C9.80380455 23.04076533 7.92538538 29.69012357 2.28515625 35.8828125 C-4.07916246 41.64830035 -9.99559335 42.56478751 -18.4765625 42.44921875 C-25.10047685 41.60470639 -29.07373774 38.12382763 -33.4375 33.3125 C-37.77211308 26.89727264 -38.91794288 20.71072018 -38 13 C-36.13832435 6.94394668 -32.25540135 1.54107257 -27 -2 C-16.70936738 -5.89524617 -9.14477363 -6.14732005 0 0 Z " fill="#231300" transform="translate(467,87)"/>
<path d="M0 0 C4.6426108 3.43866555 8.18739936 7.86364369 9.19921875 13.62890625 C10.04877303 21.56524872 9.7598172 27.81216007 5.07421875 34.4609375 C0.74829655 39.46278505 -2.81625825 42.28585763 -9.5390625 43.05859375 C-19.0454009 43.38084251 -24.96612418 41.97141318 -32 35.546875 C-36.64630447 30.59820798 -37.77800715 24.21062198 -37.80078125 17.62890625 C-37.23423216 11.10127541 -34.22095777 6.35283898 -29.80078125 1.62890625 C-20.98883491 -5.2444119 -9.69698435 -5.4809042 0 0 Z " fill="#231300" transform="translate(245.80078125,565.37109375)"/>
<path d="M0 0 C0.33 0.99 0.66 1.98 1 3 C-2.14594657 7.671254 -4.3616163 9.68874798 -10 11 C-10 9.68 -10 8.36 -10 7 C-7.8125 5.078125 -7.8125 5.078125 -5 3.25 C-4.071875 2.63640625 -3.14375 2.0228125 -2.1875 1.390625 C-1.1046875 0.70226562 -1.1046875 0.70226562 0 0 Z " fill="#C59646" transform="translate(66,617)"/>
<path d="M0 0 C0 3 0 3 -1 6 C-2.96615661 7.0650015 -4.96726926 8.06833174 -7 9 C-7.33 9.33 -7.66 9.66 -8 10 C-7.34 10.66 -6.68 11.32 -6 12 C-9.79541663 14.21399303 -13.75629421 15.00980198 -18 16 C-14.61013888 12.51134511 -11.10340442 9.35867013 -7.3125 6.3125 C-3.53910677 3.28629616 -3.53910677 3.28629616 0 0 Z " fill="#BC9045" transform="translate(85,601)"/>
<path d="M0 0 C1.703125 0.953125 1.703125 0.953125 2.703125 2.953125 C1.713125 2.953125 0.723125 2.953125 -0.296875 2.953125 C-0.956875 3.613125 -1.616875 4.273125 -2.296875 4.953125 C-2.956875 4.953125 -3.616875 4.953125 -4.296875 4.953125 C-6.00796189 6.57415468 -7.66940806 8.24815963 -9.296875 9.953125 C-10.63020833 11.28645833 -11.96354167 12.61979167 -13.296875 13.953125 C-13.296875 10.26753636 -12.07265703 9.2882273 -9.58203125 6.73046875 C-9.07542969 6.22644531 -8.56882812 5.72242188 -8.046875 5.203125 C-7.55574219 4.68363281 -7.06460938 4.16414062 -6.55859375 3.62890625 C-2.89026687 -0.05898504 -2.89026687 -0.05898504 0 0 Z " fill="#BD9147" transform="translate(104.296875,585.046875)"/>
<path d="M0 0 C1.30913891 2.15622879 2 3.57952098 2 6.125 C1 8 1 8 -2.0625 9.25 C-3.031875 9.4975 -4.00125 9.745 -5 10 C-5.33 8.68 -5.66 7.36 -6 6 C-5.34 6 -4.68 6 -4 6 C-4 5.34 -4 4.68 -4 4 C-3.34 4 -2.68 4 -2 4 C-1.34 2.68 -0.68 1.36 0 0 Z " fill="#C29446" transform="translate(159,252)"/>
<path d="M0 0 C0.33 1.32 0.66 2.64 1 4 C0.01 4.78375 -0.98 5.5675 -2 6.375 C-3.485 7.674375 -3.485 7.674375 -5 9 C-5 9.66 -5 10.32 -5 11 C-6.65 11.33 -8.3 11.66 -10 12 C-7.11954533 7.34695784 -3.96084779 3.78080926 0 0 Z " fill="#574D3E" transform="translate(36,35)"/>
<path d="M0 0 C-0.33 2.31 -0.66 4.62 -1 7 C-4.37462715 6.45276317 -6.08235 5.9451 -9 4 C-8.01 3.67 -7.02 3.34 -6 3 C-5.67 2.34 -5.34 1.68 -5 1 C-5 1.66 -5 2.32 -5 3 C-4.319375 2.2575 -4.319375 2.2575 -3.625 1.5 C-2 0 -2 0 0 0 Z " fill="#B68C45" transform="translate(651,384)"/>
<path d="M0 0 C3.0916909 2.52956528 3.90931332 5.22454612 5 9 C4.01 9.495 4.01 9.495 3 10 C2.34 9.67 1.68 9.34 1 9 C1 8.01 1 7.02 1 6 C0.34 5.67 -0.32 5.34 -1 5 C-0.67 3.35 -0.34 1.7 0 0 Z " fill="#BC9046" transform="translate(140,206)"/>
<path d="M0 0 C3.63 0 7.26 0 11 0 C10.34 1.32 9.68 2.64 9 4 C6.03 3.01 3.06 2.02 0 1 C0 0.67 0 0.34 0 0 Z " fill="#C09246" transform="translate(469,25)"/>
<path d="M0 0 C0.33 1.98 0.66 3.96 1 6 C-1.31 5.67 -3.62 5.34 -6 5 C-5.625 3.0625 -5.625 3.0625 -5 1 C-3 0 -3 0 0 0 Z " fill="#C49546" transform="translate(167,280)"/>
<path d="M0 0 C0.66 0.33 1.32 0.66 2 1 C1.8125 2.8125 1.8125 2.8125 1 5 C-1.5625 6.75 -1.5625 6.75 -4 8 C-4.33 6.68 -4.66 5.36 -5 4 C-4.360625 3.71125 -3.72125 3.4225 -3.0625 3.125 C-0.84793921 2.17176549 -0.84793921 2.17176549 0 0 Z " fill="#BD9146" transform="translate(633,63)"/>
<path d="M0 0 C0.66 0.33 1.32 0.66 2 1 C2 2.32 2 3.64 2 5 C1.34 5 0.68 5 0 5 C-0.33 5.66 -0.66 6.32 -1 7 C-1.33 6.01 -1.66 5.02 -2 4 C-2.99 4.66 -3.98 5.32 -5 6 C-5.66 5.34 -6.32 4.68 -7 4 C-1.7265625 0.77734375 -1.7265625 0.77734375 0 0 Z " fill="#204A4A" transform="translate(197,550)"/>
<path d="M0 0 C0.99552499 3.09718886 0.89921243 4.90271275 0 8 C0 8.99 0 9.98 0 11 C-1.32 9.68 -2.64 8.36 -4 7 C-2.68 4.69 -1.36 2.38 0 0 Z " fill="#B98D45" transform="translate(558,182)"/>
<path d="M0 0 C0 3.77910478 -0.99703962 4.46106101 -3.5 7.1875 C-4.1496875 7.90292969 -4.799375 8.61835937 -5.46875 9.35546875 C-5.9740625 9.89816406 -6.479375 10.44085938 -7 11 C-7.99 10.34 -8.98 9.68 -10 9 C-9.44570313 8.51789063 -8.89140625 8.03578125 -8.3203125 7.5390625 C-7.59585938 6.90742187 -6.87140625 6.27578125 -6.125 5.625 C-5.40570312 4.99851562 -4.68640625 4.37203125 -3.9453125 3.7265625 C-2.5923402 2.52573166 -1.2791655 1.2791655 0 0 Z " fill="#322410" transform="translate(596,97)"/>
<path d="M0 0 C0.33 0.66 0.66 1.32 1 2 C-2.9050849 5.55007718 -5.97734643 6.81819916 -11 8 C-7.72291137 4.32966073 -4.28477792 2.30718811 0 0 Z " fill="#7F786D" transform="translate(65,13)"/>
<path d="M0 0 C0.66 0.33 1.32 0.66 2 1 C1.8125 2.875 1.8125 2.875 1 5 C-1.5625 6.25 -1.5625 6.25 -4 7 C-4 5.68 -4 4.36 -4 3 C-2 1.25 -2 1.25 0 0 Z " fill="#BB8F46" transform="translate(60,621)"/>
<path d="M0 0 C0.66 0.33 1.32 0.66 2 1 C1.125 6.75 1.125 6.75 0 9 C-3 5.375 -3 5.375 -3 2 C-2.01 1.34 -1.02 0.68 0 0 Z " fill="#80796F" transform="translate(20,617)"/>
<path d="M0 0 C-1.2748209 2.84383123 -2.45137078 5.13754018 -5 7 C-7.1015625 6.57421875 -7.1015625 6.57421875 -9 6 C-7.8803014 4.99406757 -6.7540588 3.9954151 -5.625 3 C-4.68527344 2.1646875 -4.68527344 2.1646875 -3.7265625 1.3125 C-2 0 -2 0 0 0 Z " fill="#776F64" transform="translate(59,591)"/>
<path d="M0 0 C0 0.99 0 1.98 0 3 C-2.3125 5.25 -2.3125 5.25 -5 7 C-5.99 6.67 -6.98 6.34 -8 6 C-5.36 4.02 -2.72 2.04 0 0 Z " fill="#675D50" transform="translate(139,557)"/>
<path d="M0 0 C1.65 1.65 3.3 3.3 5 5 C3.02 5.99 3.02 5.99 1 7 C-0.0625 4.625 -0.0625 4.625 -1 2 C-0.67 1.34 -0.34 0.68 0 0 Z " fill="#C19346" transform="translate(74,504)"/>
<path d="M0 0 C-1.44253657 3.36591866 -3.33264727 5.51047079 -6 8 C-6.66 7.34 -7.32 6.68 -8 6 C-7.0479279 4.99403703 -6.08812654 3.99538437 -5.125 3 C-4.59132812 2.443125 -4.05765625 1.88625 -3.5078125 1.3125 C-2 0 -2 0 0 0 Z " fill="#62584B" transform="translate(45,28)"/>
<path d="M0 0 C0.33 0 0.66 0 1 0 C1.36923077 7.50769231 1.36923077 7.50769231 -0.5 10 C-0.995 10.33 -1.49 10.66 -2 11 C-2.66 10.67 -3.32 10.34 -4 10 C-2.68 6.7 -1.36 3.4 0 0 Z " fill="#1F4D4D" transform="translate(653,469)"/>
<path d="M0 0 C0.66 0.33 1.32 0.66 2 1 C0.875 2.9375 0.875 2.9375 -1 5 C-4.1875 5.75 -4.1875 5.75 -7 6 C-4.74259377 3.66475218 -2.7194239 1.81294927 0 0 Z " fill="#797266" transform="translate(157,544)"/>
<path d="M0 0 C1.65 0.33 3.3 0.66 5 1 C5 1.66 5 2.32 5 3 C3.02 3.66 1.04 4.32 -1 5 C-1 2 -1 2 0 0 Z " fill="#C49547" transform="translate(524,385)"/>
<path d="M0 0 C0.33 0.66 0.66 1.32 1 2 C0.34 1.67 -0.32 1.34 -1 1 C-0.67 0.67 -0.34 0.34 0 0 Z M-3 2 C-2.34 2.33 -1.68 2.66 -1 3 C-3.46153846 6.81538462 -3.46153846 6.81538462 -6.1875 7.75 C-6.785625 7.8325 -7.38375 7.915 -8 8 C-6.63016497 4.83884224 -6.0109362 4.0072908 -3 2 Z " fill="#1F4A4A" transform="translate(152,579)"/>
<path d="M0 0 C0.66 0.99 1.32 1.98 2 3 C0.61410019 6.09162264 -0.49183541 7.49183541 -3 10 C-2.01 6.7 -1.02 3.4 0 0 Z " fill="#7D756A" transform="translate(508,226)"/>
<path d="M0 0 C1.65 1.65 3.3 3.3 5 5 C3.02 5.99 3.02 5.99 1 7 C0.01 5.02 -0.98 3.04 -2 1 C-1.34 0.67 -0.68 0.34 0 0 Z " fill="#BC8F46" transform="translate(100,145)"/>
<path d="M0 0 C2.12038635 2.61514317 4.13091744 5.19637616 6 8 C4.68 8 3.36 8 2 8 C0.74335022 5.09399739 0 3.20395416 0 0 Z " fill="#1F4C4D" transform="translate(66,57)"/>
<path d="M0 0 C0.66 0.66 1.32 1.32 2 2 C1.34 3.98 0.68 5.96 0 8 C-1.4606285 5.35261084 -2 4.10551666 -2 1 C-1.34 0.67 -0.68 0.34 0 0 Z " fill="#B08743" transform="translate(35,410)"/>
<path d="M0 0 C2.31 0.33 4.62 0.66 7 1 C6.67 2.32 6.34 3.64 6 5 C1.125 2.25 1.125 2.25 0 0 Z " fill="#204C4D" transform="translate(150,108)"/>
</svg>
